<svg width="28" height="28" viewBox="0 0 28 28" fill="none" xmlns="http://www.w3.org/2000/svg">
<path d="M2.33325 8.1665L11.859 14.8345C12.6304 15.3745 13.016 15.6445 13.4356 15.749C13.8061 15.8414 14.1937 15.8414 14.5643 15.749C14.9838 15.6445 15.3695 15.3745 16.1408 14.8345L25.6666 8.1665M7.93325 23.3332H20.0666C22.0268 23.3332 23.0069 23.3332 23.7556 22.9517C24.4141 22.6161 24.9496 22.0807 25.2851 21.4221C25.6666 20.6734 25.6666 19.6934 25.6666 17.7332V10.2665C25.6666 8.30632 25.6666 7.32623 25.2851 6.57754C24.9496 5.91897 24.4141 5.38354 23.7556 5.04798C23.0069 4.6665 22.0268 4.6665 20.0666 4.6665H7.93325C5.97307 4.6665 4.99298 4.6665 4.24429 5.04798C3.58572 5.38354 3.05029 5.91897 2.71473 6.57754C2.33325 7.32623 2.33325 8.30632 2.33325 10.2665V17.7332C2.33325 19.6934 2.33325 20.6734 2.71473 21.4221C3.05029 22.0807 3.58572 22.6161 4.24429 22.9517C4.99298 23.3332 5.97307 23.3332 7.93325 23.3332Z" stroke="white" stroke-width="2" stroke-linecap="round" stroke-linejoin="round"/>
</svg>
